<?xml version="1.0" encoding="UTF-8" standalone="no"?>
<svg
   width="80"
   height="80"
   viewBox="0 0 80 80"
   fill="none"
   version="1.1"
   id="svg1114"
   sodipodi:docname="app5.svg"
   inkscape:version="1.2 (dc2aedaf03, 2022-05-15)"
   xmlns:inkscape="http://www.inkscape.org/namespaces/inkscape"
   xmlns:sodipodi="http://sodipodi.sourceforge.net/DTD/sodipodi-0.dtd"
   xmlns="http://www.w3.org/2000/svg"
   xmlns:svg="http://www.w3.org/2000/svg">
  <defs
     id="defs1118" />
  <sodipodi:namedview
     id="namedview1116"
     pagecolor="#ffffff"
     bordercolor="#000000"
     borderopacity="0.25"
     inkscape:showpageshadow="2"
     inkscape:pageopacity="0.0"
     inkscape:pagecheckerboard="0"
     inkscape:deskcolor="#d1d1d1"
     showgrid="false"
     inkscape:zoom="6.9384853"
     inkscape:cx="6.9899982"
     inkscape:cy="50.371224"
     inkscape:window-width="1920"
     inkscape:window-height="1001"
     inkscape:window-x="-9"
     inkscape:window-y="-9"
     inkscape:window-maximized="1"
     inkscape:current-layer="svg1114" />
  <circle
     style="fill:#b29a39;fill-opacity:1;stroke:none;stroke-width:1.0514"
     id="path5047"
     cx="41.324841"
     cy="40.407639"
     r="38.037994" />
  <path
     class="cls-5"
     d="M 40.082412,79.207675 A 39.049045,39.049045 0 1 1 79.131456,40.15863 39.090498,39.090498 0 0 1 40.082412,79.207675 Z m 0,-75.6108884 A 36.561844,36.561844 0 1 0 76.644256,40.15863 36.603298,36.603298 0 0 0 40.082412,3.5967866 Z"
     id="path2087"
     style="fill:#b29a38;stroke-width:0.829067;fill-opacity:1" />
  <path
     class="cls-3"
     d="m 62.300761,36.993118 h -7.439808 v -6.10047 a 4.6574407,4.6574407 0 0 0 -4.6488,-4.640159 h -1.641769 v -6.532514 a 10.057998,10.057998 0 0 0 -9.263036,-10.0752799 0.86408919,0.86408919 0 0 0 -0.216022,0 H 39.013556 38.590153 21.723132 A 4.1476281,4.1476281 0 0 0 17.610067,13.800964 V 26.26113 h -1.252929 a 4.6487999,4.6487999 0 0 0 -4.6488,4.640159 v 25.732576 a 4.6487999,4.6487999 0 0 0 4.6488,4.6488 H 40.88863 a 1.1146751,1.1146751 0 0 0 0,-2.22935 H 16.357139 A 2.3848862,2.3848862 0 0 1 15.10421,58.690397 L 32.602016,41.814736 a 15.251174,15.251174 0 0 0 1.131957,-1.088753 c 0.950498,-0.96778 1.538078,-1.520797 2.445372,-1.520797 h 26.121416 a 2.4194497,2.4194497 0 0 1 2.41945,2.41945 v 2.125659 a 1.1146751,1.1146751 0 0 0 2.22935,0 v -2.125659 a 4.6487999,4.6487999 0 0 0 -4.6488,-4.631518 z M 46.297829,18.89909 c -3.369947,-0.07777 -4.571031,-1.010984 -5.184535,-1.728178 -0.613503,-0.717194 -0.864089,-1.797306 -0.864089,-5.141331 a 7.8286481,7.8286481 0 0 1 6.048624,6.869509 z m 6.333774,18.094028 H 36.213909 c -1.892356,0 -3.032954,1.157879 -4.035297,2.186145 -0.311072,0.328354 -0.639426,0.656708 -1.036907,1.002344 L 13.980894,56.711633 c 0,0 0,-0.06049 0,-0.08641 V 30.892648 a 2.4367315,2.4367315 0 0 1 2.42809,-2.41945 h 1.25293 v 19.545698 a 1.1146751,1.1146751 0 1 0 2.22935,0 V 13.766401 a 1.918278,1.918278 0 0 1 1.883714,-1.93556 h 16.27944 c 0,3.672379 0.216023,5.322789 1.408466,6.748536 1.382543,1.667692 3.611893,2.479936 6.912713,2.540422 v 13.980963 a 1.1146755,1.1146755 0 0 0 2.229351,0 v -6.627564 h 1.641769 a 2.4194497,2.4194497 0 0 1 2.41945,2.41945 z"
     id="path2049"
     style="fill:#ffffff;fill-opacity:1;stroke-width:0.864089" />
  <path
     class="cls-3"
     d="M 40.68125,22.718364 H 25.879402 a 1.1146751,1.1146751 0 0 0 0,2.22071 H 40.68125 a 1.1146751,1.1146751 0 1 0 0,-2.22071 z"
     id="path2051"
     style="fill:#ffffff;fill-opacity:1;stroke-width:0.864089" />
  <path
     class="cls-3"
     d="M 25.879402,32.975103 H 40.68125 a 1.1146751,1.1146751 0 1 0 0,-2.22935 H 25.879402 a 1.1146751,1.1146751 0 0 0 0,2.22935 z"
     id="path2053"
     style="fill:#ffffff;fill-opacity:1;stroke-width:0.864089" />
  <path
     class="cls-3"
     d="M 55.725042,43.275046 A 12.961338,12.961338 0 1 0 68.68638,56.236384 12.961338,12.961338 0 0 0 55.725042,43.275046 Z m 0,23.650121 A 10.714706,10.714706 0 1 1 66.439748,56.210461 10.723347,10.723347 0 0 1 55.725042,66.925167 Z"
     id="path2055"
     style="fill:#ffffff;fill-opacity:1;stroke-width:0.864089" />
  <path
     class="cls-3"
     d="m 58.792559,56.711633 -2.592267,-1.892355 v -6.048624 a 1.0714706,1.0714706 0 0 1 0.561657,1.062829 v 3.214412 h 3.214412 v -1.900996 a 2.6700356,2.6700356 0 0 0 -1.235647,-2.237991 5.0030764,5.0030764 0 0 0 -2.540422,-0.864089 v -0.985062 a 0.57893976,0.57893976 0 0 0 -0.570299,-0.57894 h -0.172818 a 0.57893976,0.57893976 0 0 0 -0.570299,0.57894 v 0.985062 a 5.0203582,5.0203582 0 0 0 -2.592268,0.864089 2.6873174,2.6873174 0 0 0 -1.235647,2.237991 v 1.468951 a 3.1798482,3.1798482 0 0 0 1.278852,2.730522 l 2.592267,1.892356 v 6.351055 a 1.0628297,1.0628297 0 0 1 -0.622144,-1.080111 v -3.257617 h -3.240334 v 1.900997 a 2.6786765,2.6786765 0 0 0 1.278852,2.22935 5.1845351,5.1845351 0 0 0 2.592267,0.864089 v 0.950498 a 0.57893976,0.57893976 0 0 0 0.570299,0.57894 h 0.172818 a 0.57893976,0.57893976 0 0 0 0.570299,-0.57894 v -0.915935 a 5.1326898,5.1326898 0 0 0 2.661395,-0.864089 2.6700356,2.6700356 0 0 0 1.201084,-2.22935 V 59.459437 A 3.19713,3.19713 0 0 0 58.792559,56.711633 Z M 54.273373,51.915938 V 49.79892 a 1.0714706,1.0714706 0 0 1 0.58758,-1.071471 v 5.063563 a 2.7564445,2.7564445 0 0 1 -0.58758,-1.875074 z m 2.592267,10.602375 a 1.0714706,1.0714706 0 0 1 -0.639426,1.114675 v -5.331431 a 2.7737263,2.7737263 0 0 1 0.639426,1.857792 z"
     id="path2057"
     style="fill:#ffffff;fill-opacity:1;stroke-width:0.864089" />
</svg>
